
<svg width="389" height="362" viewBox="0 0 389 362" fill="none" xmlns="http://www.w3.org/2000/svg">
    <g clip-path="url(#clip0_109_12)">
    <path d="M157.54 299C172.17 309.06 189.43 314.67 206.83 318.23C223.27 321.59 241.15 323.06 256.13 315.5C268.78 309.12 277.56 297.22 285.85 285.73C303.31 261.53 321.06 236.6 328.83 207.79C331.34 198.49 332.53 187.77 326.98 179.9C322.26 173.2 313.9 170.32 306.09 167.82C280.04 159.5 252.58 151.09 225.78 156.54C210.63 159.62 196.72 166.97 183.32 174.69C169.77 182.5 156.5 190.78 143.53 199.52C137.54 203.56 131.47 207.83 127.44 213.84C108.58 241.97 134.15 282.92 157.53 299H157.54Z" fill="#CCFF99"/>
    <path d="M245.22 177C259.22 194 257.66 211.43 250.14 230.44C242.62 249.45 225.74 264.5 206 269.79" fill="#CCFF99"/>
    <path d="M245.22 177C259.22 194 257.66 211.43 250.14 230.44C242.62 249.45 225.74 264.5 206 269.79" stroke="black" stroke-width="4" stroke-miterlimit="10" stroke-linecap="round"/>
    <path d="M127.922 196C94.2686 197.937 60.6148 199.864 26.961 201.801C22.518 202.052 17.9142 202.36 13.9538 204.65C5.78157 209.369 2.8062 220.846 1.75075 231.171C-0.159118 249.988 1.58992 269.272 6.82697 287.256C10.3049 299.2 15.9541 311.327 25.8351 317.048C34.6004 322.12 45.0042 321.231 54.8048 320.216C82.7592 317.321 113.046 315.008 141 312.102" fill="#CCFF99"/>
    <path d="M127.922 196C94.2686 197.937 60.6148 199.864 26.961 201.801C22.518 202.052 17.9142 202.36 13.9538 204.65C5.78157 209.369 2.8062 220.846 1.75075 231.171C-0.159118 249.988 1.58992 269.272 6.82697 287.256C10.3049 299.2 15.9541 311.327 25.8351 317.048C34.6004 322.12 45.0042 321.231 54.8048 320.216C82.7592 317.321 113.046 315.008 141 312.102" stroke="black" stroke-width="4" stroke-miterlimit="10" stroke-linecap="round"/>
    <path d="M132.36 258.8C134.11 278.85 136.86 299.93 148.04 315.76C159.13 331.46 177.13 339.53 194.95 341.61C212.77 343.69 232.09 340.01 249.77 336.78" fill="#CCFF99"/>
    <path d="M132.36 258.8C134.11 278.85 136.86 299.93 148.04 315.76C159.13 331.46 177.13 339.53 194.95 341.61C212.77 343.69 232.09 340.01 249.77 336.78" stroke="black" stroke-width="4" stroke-miterlimit="10" stroke-linecap="round"/>
    <path d="M227.568 163.262C249.031 138.632 257.867 102.634 250.375 70.2615C245.07 47.3281 230.367 25.2644 208.693 18.6117C187.03 11.9591 159.74 26.574 157.613 50.0625C156.149 66.2489 165.918 81.2514 167.543 97.4168C169.809 120.004 156.239 140.539 144.304 159.522C132.38 178.506 121.096 201.544 128.217 223" fill="#CCFF99"/>
    <path d="M227.568 163.262C249.031 138.632 257.867 102.634 250.375 70.2615C245.07 47.3281 230.367 25.2644 208.693 18.6117C187.03 11.9591 159.74 26.574 157.613 50.0625C156.149 66.2489 165.918 81.2514 167.543 97.4168C169.809 120.004 156.239 140.539 144.304 159.522C132.38 178.506 121.096 201.544 128.217 223" stroke="black" stroke-width="4" stroke-miterlimit="10" stroke-linecap="round"/>
    <path d="M344.95 314.76C350.93 324.92 348.01 340.95 339.17 348.71C330.32 356.47 318.43 358.92 307.06 359.75C290.7 360.94 274.2 359.32 258.41 354.97C248.26 352.17 237.83 347.82 231.66 338.89C224.26 328.2 225.13 311.89 233.64 301.86" fill="#CCFF99"/>
    <path d="M344.95 314.76C350.93 324.92 348.01 340.95 339.17 348.71C330.32 356.47 318.43 358.92 307.06 359.75C290.7 360.94 274.2 359.32 258.41 354.97C248.26 352.17 237.83 347.82 231.66 338.89C224.26 328.2 225.13 311.89 233.64 301.86" stroke="black" stroke-width="4" stroke-miterlimit="10" stroke-linecap="round"/>
    <path d="M362.78 279.71C371.55 288.88 370.91 305.17 361.88 314.14C352.85 323.11 339.34 327.28 326.14 329.76C307.16 333.33 287.54 334.14 268.28 332.14C255.9 330.86 242.92 328.07 234.13 320.15C223.6 310.65 221.8 294.4 230.04 283.23" fill="#CCFF99"/>
    <path d="M362.78 279.71C371.55 288.88 370.91 305.17 361.88 314.14C352.85 323.11 339.34 327.28 326.14 329.76C307.16 333.33 287.54 334.14 268.28 332.14C255.9 330.86 242.92 328.07 234.13 320.15C223.6 310.65 221.8 294.4 230.04 283.23" stroke="black" stroke-width="4" stroke-miterlimit="10" stroke-linecap="round"/>
    <path d="M369.12 234.12C377.14 233.43 384.62 239.88 386.36 247.44C388.1 255 384.93 263.05 379.64 268.89C374.35 274.73 367.17 278.67 359.85 281.9C333.65 293.45 304.26 297.06 275.47 295.98C261.58 295.46 247 293.61 235.88 285.59C224.76 277.57 222.64 255.71 233.03 247.71" fill="#CCFF99"/>
    <path d="M369.12 234.12C377.14 233.43 384.62 239.88 386.36 247.44C388.1 255 384.93 263.05 379.64 268.89C374.35 274.73 367.17 278.67 359.85 281.9C333.65 293.45 304.26 297.06 275.47 295.98C261.58 295.46 247 293.61 235.88 285.59C224.76 277.57 222.64 255.71 233.03 247.71" stroke="black" stroke-width="4" stroke-miterlimit="10" stroke-linecap="round"/>
    <path d="M235.78 154.71C276.36 149.77 325.12 145.37 360.22 166.33C376.95 176.32 391.32 195.27 386.25 214.08C381.2 232.81 360.17 241.75 341.39 246.59C315.61 253.23 289.11 257.08 262.5 258.05C252.62 258.41 242.14 258.22 233.73 253.02C220.13 244.61 216.84 224.71 224.03 210.43C231.22 196.15 246.45 187.28 262.07 183.88C277.69 180.48 293.91 181.77 309.85 183.09" fill="#CCFF99"/>
    <path d="M235.78 154.71C276.36 149.77 325.12 145.37 360.22 166.33C376.95 176.32 391.32 195.27 386.25 214.08C381.2 232.81 360.17 241.75 341.39 246.59C315.61 253.23 289.11 257.08 262.5 258.05C252.62 258.41 242.14 258.22 233.73 253.02C220.13 244.61 216.84 224.71 224.03 210.43C231.22 196.15 246.45 187.28 262.07 183.88C277.69 180.48 293.91 181.77 309.85 183.09" stroke="black" stroke-width="4" stroke-miterlimit="10"/>
    </g>
    <defs>
    <clipPath id="clip0_109_12">
    <rect width="389" height="362" fill="white"/>
    </clipPath>
    </defs>
</svg>
